<?xml version="1.0" encoding="UTF-8" standalone="no"?>
<svg width="13px" height="10px" viewBox="0 0 13 10" version="1.1" xmlns="http://www.w3.org/2000/svg" xmlns:xlink="http://www.w3.org/1999/xlink">
    <!-- Generator: Sketch 3.6.1 (26313) - http://www.bohemiancoding.com/sketch -->
    <title>Documents pre-depart</title>
    <desc>Created with Sketch.</desc>
    <defs></defs>
    <g id="Teacher" stroke="none" stroke-width="1" fill="none" fill-rule="evenodd">
        <g id="Mobilité---Général" transform="translate(-46.000000, -543.000000)" fill="#FFFFFF">
            <g id="Group" transform="translate(42.000000, 480.000000)">
                <g id="Documents-départ">
                    <g id="Documents-pre-depart">
                        <g id="Checkbox" transform="translate(0.000000, 58.000000)">
                            <path d="M7.93404056,13.7212666 C7.99376519,13.8164328 8.06503068,13.9064139 8.14783561,13.9892188 C8.67027494,14.5116582 9.46853206,14.5743713 10.0600591,14.1863249 C10.1578356,14.1254748 10.2502756,14.0525379 10.3352622,13.9675513 C10.3721983,13.9306152 10.4068423,13.8923062 10.4391969,13.8527945 L15.6869588,8.6050326 C16.2843066,8.00768486 16.2851845,7.04200876 15.6901151,6.44693934 C15.090897,5.84772121 14.1288344,5.85328303 13.5320218,6.4500956 L9.25238268,10.7297348 L7.10264933,8.58000141 C6.50347896,7.98083104 5.54298917,7.98513941 4.94791975,8.58020883 C4.34870161,9.17942697 4.35275746,10.1399835 4.94771233,10.7349384 L7.93404056,13.7212666 Z" id="Rectangle-32-Copy-2"></path>
                        </g>
                    </g>
                </g>
            </g>
        </g>
    </g>
</svg>